<svg xmlns="http://www.w3.org/2000/svg" viewBox="0 12.899999618530273 242.1999969482422 39.599998474121094" data-asc="1.036" width="242.1999969482422" height="39.599998474121094"><defs/><g fill="#62a03f"><g transform="translate(0, 0)"><path d="M22.25 12.90L37.60 12.90L37.60 21.10L35.60 21.10L25.95 38.40L25.95 43.60L28.45 43.60L28.45 51.80L9.45 51.80L9.45 43.60L11.95 43.60L11.95 38.40L2 21.10L0 21.10L0 12.90L19.35 12.90L19.35 21.10L17.60 21.10L20.55 28.85L21.05 28.85L24 21.10L22.25 21.10L22.25 12.90ZM68.90 43.60L70.90 43.60L70.90 51.80L51.30 51.80L51.30 43.60L54.30 43.60L53.50 39.60L46.70 39.60L45.90 43.60L48.90 43.60L48.90 51.80L31.80 51.80L31.80 43.60L33.80 43.60L42.25 12.90L60.45 12.90L68.90 43.60M47.80 34.30L52.40 34.30L50.35 24.35L49.85 24.35L47.80 34.30ZM127.65 21.10L125.15 21.10L125.15 43.60L127.65 43.60L127.65 51.80L108.75 51.80L108.75 43.60L111.15 43.60L111.15 26.10L102.65 51.80L95.25 51.80L86.50 26.35L86.50 43.60L88.90 43.60L88.90 51.80L72.50 51.80L72.50 43.60L75 43.60L75 21.10L72.50 21.10L72.50 12.90L95.40 12.90L100.60 28.50L105.60 12.90L127.65 12.90L127.65 21.10ZM129.65 51.80L129.65 43.60L132.15 43.60L132.15 21.10L129.65 21.10L129.65 12.90L150.75 12.90L150.75 21.10L146.15 21.10L146.15 43.60L150.65 43.60L150.65 39L160.60 39L160.60 51.80L129.65 51.80ZM177.10 52.50Q170 52.50 166 48.78Q162 45.05 162 37.90Q162 30.75 166 27.03Q170 23.30 177.10 23.30Q184.15 23.30 187.28 26.98Q190.40 30.65 190.40 36.10L190.40 39.70L174.20 39.70L174.20 40Q174.20 41.85 175.30 42.73Q176.40 43.60 178.95 43.60Q182 43.60 184.75 43.15Q187.50 42.70 189.55 42L189.55 50.00Q187.80 50.95 184.43 51.73Q181.05 52.50 177.10 52.50M180 34.20L180 33.60Q180 31.90 179.28 31.15Q178.55 30.40 177.10 30.40Q175.65 30.40 174.93 31.18Q174.20 31.95 174.20 33.60L174.20 34.20L180 34.20ZM204.05 52.50Q197.75 52.50 191.90 50.50L191.90 43.10L200 43.10L200 43.60Q200 46 203.05 46Q205.75 46 205.75 44.15Q205.75 43.15 204.97 42.65Q204.20 42.15 202.25 41.80L199.75 41.35Q191.90 39.95 191.90 32.45Q191.90 28.10 195.20 25.70Q198.50 23.30 204.10 23.30Q210.35 23.30 214.65 25.40L214.65 32.35L207.05 32.35L207.05 31.85Q207.05 30.85 206.38 30.33Q205.70 29.80 204.40 29.80Q201.90 29.80 201.90 31.40Q201.90 32.25 202.60 32.70Q203.30 33.15 205.15 33.55L208 34.10Q212.45 34.95 214.35 37.25Q216.25 39.55 216.25 43.15Q216.25 47.70 213.07 50.10Q209.90 52.50 204.05 52.50ZM230 52.50Q223.70 52.50 217.85 50.50L217.85 43.10L225.95 43.10L225.95 43.60Q225.95 46 229 46Q231.70 46 231.70 44.15Q231.70 43.15 230.92 42.65Q230.15 42.15 228.20 41.80L225.70 41.35Q217.85 39.95 217.85 32.45Q217.85 28.10 221.15 25.70Q224.45 23.30 230.05 23.30Q236.30 23.30 240.60 25.40L240.60 32.35L233 32.35L233 31.85Q233 30.85 232.32 30.33Q231.65 29.80 230.35 29.80Q227.85 29.80 227.85 31.40Q227.85 32.25 228.55 32.70Q229.25 33.15 231.10 33.55L233.95 34.10Q238.40 34.95 240.30 37.25Q242.20 39.55 242.20 43.15Q242.20 47.70 239.02 50.10Q235.85 52.50 230 52.50Z"/></g></g></svg>