<svg xmlns="http://www.w3.org/2000/svg" viewBox="0 13.920000076293945 212.64999389648438 37.01000213623047" data-asc="1.00537109375" width="212.64999389648438" height="37.01000213623047"><defs/><g fill="#5bc021"><g transform="translate(0, 0)"><path d="M30.47 13.92L17.68 34.33L17.68 50.27L12.84 50.27L12.84 34.84L0 13.92L5.35 13.92L15.28 30.18L25.32 13.92L30.47 13.92ZM62.21 50.27L57.06 50.27L53.49 40.14L37.77 40.14L34.20 50.27L29.30 50.27L42.53 13.92L48.97 13.92L62.21 50.27M52.00 35.99L45.63 18.14L39.23 35.99L52.00 35.99ZM100.10 50.27L95.26 50.27L95.26 18.95L85.16 40.26L82.28 40.26L72.24 18.95L72.24 50.27L67.72 50.27L67.72 13.92L74.32 13.92L84.01 34.16L93.38 13.92L100.10 13.92L100.10 50.27ZM132.86 50.27L109.86 50.27L109.86 13.92L114.70 13.92L114.70 45.97L132.86 45.97L132.86 50.27ZM160.16 37.11L140.06 37.11Q140.06 39.62 140.82 41.49Q141.58 43.36 142.90 44.56Q144.17 45.73 145.91 46.31Q147.66 46.90 149.76 46.90Q152.54 46.90 155.36 45.79Q158.18 44.68 159.38 43.60L159.62 43.60L159.62 48.61Q157.30 49.58 154.88 50.24Q152.47 50.90 149.80 50.90Q143.02 50.90 139.21 47.23Q135.40 43.55 135.40 36.79Q135.40 30.10 139.05 26.17Q142.70 22.24 148.66 22.24Q154.17 22.24 157.17 25.46Q160.16 28.69 160.16 34.62L160.16 37.11M155.69 33.59Q155.66 29.98 153.87 28.00Q152.08 26.03 148.41 26.03Q144.73 26.03 142.54 28.20Q140.36 30.37 140.06 33.59L155.69 33.59ZM186.60 42.41Q186.60 46.14 183.51 48.54Q180.42 50.93 175.07 50.93Q172.05 50.93 169.52 50.21Q166.99 49.49 165.28 48.63L165.28 43.48L165.53 43.48Q167.70 45.12 170.36 46.08Q173.02 47.05 175.46 47.05Q178.49 47.05 180.20 46.07Q181.91 45.09 181.91 42.99Q181.91 41.38 180.98 40.55Q180.05 39.72 177.42 39.14Q176.44 38.92 174.87 38.62Q173.29 38.33 172.00 37.99Q168.41 37.04 166.91 35.19Q165.41 33.35 165.41 30.66Q165.41 28.98 166.10 27.49Q166.80 26.00 168.21 24.83Q169.58 23.68 171.69 23.01Q173.80 22.34 176.42 22.34Q178.86 22.34 181.36 22.94Q183.86 23.54 185.52 24.39L185.52 29.30L185.28 29.30Q183.52 28.00 181.01 27.11Q178.49 26.22 176.07 26.22Q173.56 26.22 171.83 27.19Q170.09 28.15 170.09 30.05Q170.09 31.74 171.14 32.59Q172.17 33.45 174.46 33.98Q175.73 34.28 177.31 34.57Q178.88 34.86 179.93 35.11Q183.13 35.84 184.86 37.62Q186.60 39.43 186.60 42.41ZM212.65 42.41Q212.65 46.14 209.56 48.54Q206.47 50.93 201.12 50.93Q198.10 50.93 195.57 50.21Q193.04 49.49 191.33 48.63L191.33 43.48L191.58 43.48Q193.75 45.12 196.41 46.08Q199.07 47.05 201.51 47.05Q204.54 47.05 206.25 46.07Q207.96 45.09 207.96 42.99Q207.96 41.38 207.03 40.55Q206.10 39.72 203.47 39.14Q202.49 38.92 200.92 38.62Q199.34 38.33 198.05 37.99Q194.46 37.04 192.96 35.19Q191.46 33.35 191.46 30.66Q191.46 28.98 192.15 27.49Q192.85 26.00 194.26 24.83Q195.63 23.68 197.74 23.01Q199.85 22.34 202.47 22.34Q204.91 22.34 207.41 22.94Q209.91 23.54 211.57 24.39L211.57 29.30L211.33 29.30Q209.57 28.00 207.06 27.11Q204.54 26.22 202.12 26.22Q199.61 26.22 197.88 27.19Q196.14 28.15 196.14 30.05Q196.14 31.74 197.19 32.59Q198.22 33.45 200.51 33.98Q201.78 34.28 203.36 34.57Q204.93 34.86 205.98 35.11Q209.18 35.84 210.91 37.62Q212.65 39.43 212.65 42.41Z"/></g></g></svg>